<svg xmlns="http://www.w3.org/2000/svg" xmlns:xlink="http://www.w3.org/1999/xlink" width="700" zoomAndPan="magnify" viewBox="0 0 525 675.000002" height="900" preserveAspectRatio="xMidYMid meet" version="1.0"><defs><clipPath id="276330467f"><path d="M 0.386719 12 L 346 12 L 346 671 L 0.386719 671 Z M 0.386719 12 " clip-rule="nonzero"/></clipPath><clipPath id="0207d493d3"><path d="M -331.78125 740.3125 L -401.355469 33.027344 L 332.757812 -39.1875 L 402.332031 668.097656 Z M -331.78125 740.3125 " clip-rule="nonzero"/></clipPath><clipPath id="6a5824445b"><path d="M -331.78125 740.3125 L -401.355469 33.027344 L 332.757812 -39.1875 L 402.332031 668.097656 Z M -331.78125 740.3125 " clip-rule="nonzero"/></clipPath><clipPath id="c1521593cc"><path d="M 0.386719 25 L 311 25 L 311 642 L 0.386719 642 Z M 0.386719 25 " clip-rule="nonzero"/></clipPath><clipPath id="7f6c07819e"><path d="M -331.78125 740.3125 L -401.355469 33.027344 L 332.757812 -39.1875 L 402.332031 668.097656 Z M -331.78125 740.3125 " clip-rule="nonzero"/></clipPath><clipPath id="1f7da8a87e"><path d="M -331.78125 740.3125 L -401.355469 33.027344 L 332.757812 -39.1875 L 402.332031 668.097656 Z M -331.78125 740.3125 " clip-rule="nonzero"/></clipPath><clipPath id="8dcf052cf3"><path d="M 0.386719 38 L 277 38 L 277 614 L 0.386719 614 Z M 0.386719 38 " clip-rule="nonzero"/></clipPath><clipPath id="e6896445f7"><path d="M -331.78125 740.3125 L -401.355469 33.027344 L 332.757812 -39.1875 L 402.332031 668.097656 Z M -331.78125 740.3125 " clip-rule="nonzero"/></clipPath><clipPath id="9238e31216"><path d="M -331.78125 740.3125 L -401.355469 33.027344 L 332.757812 -39.1875 L 402.332031 668.097656 Z M -331.78125 740.3125 " clip-rule="nonzero"/></clipPath><clipPath id="fb2b44ebd4"><path d="M 0.386719 51 L 242 51 L 242 585 L 0.386719 585 Z M 0.386719 51 " clip-rule="nonzero"/></clipPath><clipPath id="ea6b9b96de"><path d="M -331.78125 740.3125 L -401.355469 33.027344 L 332.757812 -39.1875 L 402.332031 668.097656 Z M -331.78125 740.3125 " clip-rule="nonzero"/></clipPath><clipPath id="b5c16cf1bc"><path d="M -331.78125 740.3125 L -401.355469 33.027344 L 332.757812 -39.1875 L 402.332031 668.097656 Z M -331.78125 740.3125 " clip-rule="nonzero"/></clipPath><clipPath id="c6b35d05a6"><path d="M 0.386719 64 L 207 64 L 207 556 L 0.386719 556 Z M 0.386719 64 " clip-rule="nonzero"/></clipPath><clipPath id="910a5cd903"><path d="M -331.78125 740.3125 L -401.355469 33.027344 L 332.757812 -39.1875 L 402.332031 668.097656 Z M -331.78125 740.3125 " clip-rule="nonzero"/></clipPath><clipPath id="ec1041c516"><path d="M -331.78125 740.3125 L -401.355469 33.027344 L 332.757812 -39.1875 L 402.332031 668.097656 Z M -331.78125 740.3125 " clip-rule="nonzero"/></clipPath><clipPath id="cd856afddf"><path d="M 0.386719 77 L 173 77 L 173 528 L 0.386719 528 Z M 0.386719 77 " clip-rule="nonzero"/></clipPath><clipPath id="3da75fc738"><path d="M -331.78125 740.3125 L -401.355469 33.027344 L 332.757812 -39.1875 L 402.332031 668.097656 Z M -331.78125 740.3125 " clip-rule="nonzero"/></clipPath><clipPath id="8382c2741f"><path d="M -331.78125 740.3125 L -401.355469 33.027344 L 332.757812 -39.1875 L 402.332031 668.097656 Z M -331.78125 740.3125 " clip-rule="nonzero"/></clipPath><clipPath id="910aa1d33c"><path d="M 0.386719 90 L 138 90 L 138 499 L 0.386719 499 Z M 0.386719 90 " clip-rule="nonzero"/></clipPath><clipPath id="84a1071a23"><path d="M -331.78125 740.3125 L -401.355469 33.027344 L 332.757812 -39.1875 L 402.332031 668.097656 Z M -331.78125 740.3125 " clip-rule="nonzero"/></clipPath><clipPath id="ad502a4349"><path d="M -331.78125 740.3125 L -401.355469 33.027344 L 332.757812 -39.1875 L 402.332031 668.097656 Z M -331.78125 740.3125 " clip-rule="nonzero"/></clipPath><clipPath id="d76842e0b6"><path d="M 0.386719 103 L 103 103 L 103 470 L 0.386719 470 Z M 0.386719 103 " clip-rule="nonzero"/></clipPath><clipPath id="4ec8ec314b"><path d="M -331.78125 740.3125 L -401.355469 33.027344 L 332.757812 -39.1875 L 402.332031 668.097656 Z M -331.78125 740.3125 " clip-rule="nonzero"/></clipPath><clipPath id="9402879cb3"><path d="M -331.78125 740.3125 L -401.355469 33.027344 L 332.757812 -39.1875 L 402.332031 668.097656 Z M -331.78125 740.3125 " clip-rule="nonzero"/></clipPath><clipPath id="9849200ac5"><path d="M 0.386719 116 L 69 116 L 69 442 L 0.386719 442 Z M 0.386719 116 " clip-rule="nonzero"/></clipPath><clipPath id="2516c1a03a"><path d="M -331.78125 740.3125 L -401.355469 33.027344 L 332.757812 -39.1875 L 402.332031 668.097656 Z M -331.78125 740.3125 " clip-rule="nonzero"/></clipPath><clipPath id="397aa49d0f"><path d="M -331.78125 740.3125 L -401.355469 33.027344 L 332.757812 -39.1875 L 402.332031 668.097656 Z M -331.78125 740.3125 " clip-rule="nonzero"/></clipPath><clipPath id="9acada2d3a"><path d="M 0.386719 129 L 34 129 L 34 413 L 0.386719 413 Z M 0.386719 129 " clip-rule="nonzero"/></clipPath><clipPath id="945ecea2f8"><path d="M -331.78125 740.3125 L -401.355469 33.027344 L 332.757812 -39.1875 L 402.332031 668.097656 Z M -331.78125 740.3125 " clip-rule="nonzero"/></clipPath><clipPath id="37c36b4da3"><path d="M -331.78125 740.3125 L -401.355469 33.027344 L 332.757812 -39.1875 L 402.332031 668.097656 Z M -331.78125 740.3125 " clip-rule="nonzero"/></clipPath></defs><g clip-path="url(#276330467f)"><g clip-path="url(#0207d493d3)"><g clip-path="url(#6a5824445b)"><path fill="#b3ded8" d="M 345.285156 136.867188 C 345.675781 140.84375 345.75 144.859375 345.507812 148.921875 C 342.253906 203.230469 284.335938 239.707031 233.234375 271.890625 C 223.152344 278.242188 213.625 284.242188 204.847656 290.183594 C 82.085938 373.242188 108.316406 471.070312 129.394531 549.675781 C 141.871094 596.191406 152.644531 636.363281 126.125 659.660156 C 103.910156 679.175781 54.996094 671.976562 -11.605469 639.390625 C -74.675781 608.53125 -145.125 558.867188 -204.894531 503.128906 C -262.949219 448.992188 -305.886719 394.046875 -329.070312 344.234375 C -356.273438 285.785156 -355.542969 237.085938 -326.902344 199.484375 C -243.769531 90.351562 -126.921875 45.328125 -43.535156 26.777344 C 56.851562 4.445312 164.101562 8.675781 243.359375 38.09375 C 304.933594 60.949219 341.3125 96.480469 345.285156 136.867188 Z M 111.085938 470.039062 C 109.523438 454.179688 109.402344 438 111.628906 421.707031 C 118.769531 369.464844 148.957031 325.992188 203.914062 288.808594 C 212.71875 282.851562 222.253906 276.847656 232.351562 270.488281 C 283.113281 238.515625 340.648438 202.277344 343.851562 148.824219 C 346.519531 104.277344 309.679688 64.480469 242.78125 39.652344 C 97.066406 -14.4375 -181.519531 11.367188 -325.578125 200.492188 C -377.957031 269.246094 -332.417969 381.933594 -203.765625 501.914062 C -87.6875 610.160156 77.585938 700.085938 125.027344 658.414062 C 150.773438 635.804688 140.121094 596.085938 127.792969 550.105469 C 121.105469 525.167969 113.84375 498.101562 111.085938 470.039062 Z M 111.085938 470.039062 " fill-opacity="1" fill-rule="nonzero"/></g></g></g><g clip-path="url(#c1521593cc)"><g clip-path="url(#7f6c07819e)"><g clip-path="url(#1f7da8a87e)"><path fill="#b3ded8" d="M 310.628906 141.519531 C 310.992188 145.179688 311.066406 148.878906 310.851562 152.621094 C 307.941406 203.5 253.78125 237.820312 206 268.09375 C 196.570312 274.070312 187.664062 279.710938 179.453125 285.300781 C 64.683594 363.414062 89.503906 454.972656 109.449219 528.542969 C 121.253906 572.089844 131.445312 609.6875 106.660156 631.578125 C 85.902344 649.914062 40.0625 643.296875 -22.40625 612.941406 C -81.558594 584.199219 -147.675781 537.859375 -203.804688 485.804688 C -258.316406 435.242188 -298.675781 383.886719 -320.519531 337.285156 C -346.148438 282.605469 -345.589844 236.984375 -318.855469 201.691406 C -241.265625 99.257812 -131.929688 56.785156 -53.871094 39.195312 C 40.097656 18.023438 140.570312 21.710938 214.886719 49.066406 C 272.71875 70.351562 306.898438 103.621094 310.628906 141.519531 Z M 92.011719 453.339844 C 90.570312 438.695312 90.449219 423.765625 92.464844 408.722656 C 99.019531 359.769531 127.183594 318.972656 178.570312 284 C 186.800781 278.398438 195.71875 272.75 205.15625 266.765625 C 252.621094 236.691406 306.417969 202.605469 309.28125 152.53125 C 311.667969 110.792969 277.0625 73.628906 214.34375 50.539062 C 77.71875 0.25 -183.148438 25.132812 -317.601562 202.640625 C -366.488281 267.179688 -323.542969 372.601562 -202.734375 484.648438 C -93.738281 585.742188 61.292969 669.550781 105.621094 630.398438 C 129.671875 609.160156 119.597656 571.992188 107.929688 528.953125 C 101.550781 505.417969 94.621094 479.851562 92.011719 453.339844 Z M 92.011719 453.339844 " fill-opacity="1" fill-rule="nonzero"/></g></g></g><g clip-path="url(#8dcf052cf3)"><g clip-path="url(#e6896445f7)"><g clip-path="url(#9238e31216)"><path fill="#b3ded8" d="M 275.976562 146.171875 C 276.304688 149.519531 276.378906 152.902344 276.195312 156.320312 C 273.628906 203.773438 223.230469 235.925781 178.765625 264.296875 C 169.992188 269.894531 161.703125 275.183594 154.066406 280.417969 C 47.285156 353.578125 70.691406 438.871094 89.5 507.40625 C 100.632812 547.976562 110.246094 583.007812 87.199219 603.492188 C 67.894531 620.652344 25.132812 614.617188 -33.207031 586.496094 C -88.441406 559.867188 -150.226562 516.851562 -202.710938 468.476562 C -253.6875 421.492188 -291.46875 373.726562 -311.96875 330.335938 C -336.027344 279.421875 -335.636719 236.882812 -310.8125 203.894531 C -238.765625 108.160156 -136.941406 68.242188 -64.210938 51.617188 C 23.347656 31.597656 117.039062 34.746094 186.410156 60.035156 C 240.503906 79.757812 272.492188 110.757812 275.976562 146.171875 Z M 72.9375 436.644531 C 71.617188 423.21875 71.496094 409.535156 73.300781 395.742188 C 79.269531 350.074219 105.414062 311.953125 153.226562 279.195312 C 160.882812 273.945312 169.183594 268.652344 177.96875 263.046875 C 222.132812 234.867188 272.1875 202.929688 274.714844 156.242188 C 276.820312 117.3125 244.449219 82.773438 185.902344 61.429688 C 58.371094 14.941406 -184.78125 38.894531 -309.625 204.789062 C -355.011719 265.101562 -314.667969 363.265625 -201.703125 467.386719 C -99.785156 561.324219 45 639.015625 86.214844 602.382812 C 108.574219 582.511719 99.070312 547.890625 88.070312 507.800781 C 81.996094 485.667969 75.394531 461.609375 72.9375 436.644531 Z M 72.9375 436.644531 " fill-opacity="1" fill-rule="nonzero"/></g></g></g><g clip-path="url(#fb2b44ebd4)"><g clip-path="url(#ea6b9b96de)"><g clip-path="url(#b5c16cf1bc)"><path fill="#b3ded8" d="M 241.324219 150.828125 C 241.625 153.859375 241.695312 156.921875 241.539062 160.019531 C 239.316406 204.046875 192.675781 234.042969 151.523438 260.503906 C 143.40625 265.726562 135.738281 270.65625 128.671875 275.535156 C 29.886719 343.746094 51.882812 422.773438 69.554688 486.273438 C 80.015625 523.863281 89.054688 556.328125 67.738281 575.410156 C 49.886719 591.394531 10.199219 585.9375 -44.007812 560.046875 C -95.328125 535.535156 -152.777344 495.84375 -201.617188 451.148438 C -249.058594 407.742188 -284.257812 363.5625 -303.417969 323.390625 C -325.90625 276.246094 -325.683594 236.785156 -302.765625 206.101562 C -236.261719 117.0625 -141.953125 79.699219 -74.546875 64.035156 C 6.597656 45.175781 93.507812 47.78125 157.9375 71.007812 C 208.289062 89.15625 238.082031 117.894531 241.324219 150.828125 Z M 53.863281 419.957031 C 52.660156 407.746094 52.539062 395.304688 54.132812 382.757812 C 59.519531 340.378906 83.640625 304.929688 127.878906 274.386719 C 134.964844 269.496094 142.640625 264.558594 150.769531 259.332031 C 191.640625 233.046875 237.960938 203.261719 240.144531 159.949219 C 241.976562 123.867188 211.832031 91.914062 157.464844 72.320312 C 39.027344 29.625 -186.414062 52.65625 -301.648438 206.9375 C -343.539062 263.019531 -305.792969 353.933594 -200.675781 450.121094 C -105.835938 536.90625 28.707031 608.480469 66.808594 574.371094 C 87.472656 555.871094 78.546875 523.792969 68.210938 486.648438 C 62.441406 465.917969 56.164062 443.371094 53.863281 419.957031 Z M 53.863281 419.957031 " fill-opacity="1" fill-rule="nonzero"/></g></g></g><g clip-path="url(#c6b35d05a6)"><g clip-path="url(#910a5cd903)"><g clip-path="url(#ec1041c516)"><path fill="#b3ded8" d="M 206.671875 155.480469 C 206.941406 158.199219 207.011719 160.945312 206.882812 163.71875 C 205.007812 204.316406 162.125 232.148438 124.292969 256.703125 C 116.828125 261.550781 109.777344 266.128906 103.28125 270.652344 C 12.488281 333.910156 33.066406 406.671875 49.605469 465.136719 C 59.398438 499.753906 67.855469 529.648438 48.277344 547.328125 C 31.875 562.132812 -4.730469 557.257812 -54.804688 533.601562 C -102.214844 511.203125 -155.324219 474.835938 -200.523438 433.828125 C -244.425781 393.992188 -277.046875 353.402344 -294.867188 316.441406 C -315.78125 273.070312 -315.730469 236.6875 -294.71875 208.308594 C -233.757812 125.964844 -146.964844 91.15625 -84.886719 76.453125 C -10.15625 58.753906 69.972656 60.816406 129.460938 81.976562 C 176.070312 98.558594 203.675781 125.03125 206.671875 155.480469 Z M 34.660156 402.816406 C 30.339844 358.914062 41.445312 312.144531 102.535156 269.582031 C 109.046875 265.042969 116.109375 260.460938 123.582031 255.609375 C 161.148438 231.222656 203.730469 203.585938 205.578125 163.660156 C 207.105469 130.394531 179.210938 101.0625 129.019531 83.207031 C 19.679688 44.3125 -188.046875 66.417969 -293.671875 209.085938 C -332.0625 260.945312 -296.917969 344.597656 -199.648438 432.859375 C -111.886719 512.488281 12.414062 577.945312 47.398438 546.355469 C 66.375 529.226562 58.019531 499.6875 48.347656 465.496094 C 42.808594 445.90625 36.816406 424.714844 34.660156 402.816406 Z M 34.660156 402.816406 " fill-opacity="1" fill-rule="nonzero"/></g></g></g><g clip-path="url(#cd856afddf)"><g clip-path="url(#3da75fc738)"><g clip-path="url(#8382c2741f)"><path fill="#b3ded8" d="M 172.023438 160.136719 C 172.257812 162.539062 172.328125 164.964844 172.226562 167.417969 C 170.695312 204.589844 131.574219 230.257812 97.058594 252.910156 C 90.25 257.375 83.816406 261.597656 77.890625 265.769531 C -4.914062 324.078125 14.257812 390.574219 29.660156 444.003906 C 38.78125 475.644531 46.65625 502.96875 28.8125 519.242188 C 13.867188 532.871094 -19.664062 528.578125 -65.605469 507.152344 C -109.097656 486.871094 -157.875 453.828125 -199.429688 416.5 C -239.792969 380.242188 -269.835938 343.242188 -286.316406 309.496094 C -305.65625 269.894531 -305.777344 236.585938 -286.675781 210.515625 C -231.253906 134.871094 -151.972656 102.613281 -95.222656 88.871094 C -26.90625 72.328125 46.445312 73.851562 100.984375 92.949219 C 143.855469 107.957031 169.269531 132.167969 172.023438 160.136719 Z M 15.589844 386.195312 C 11.660156 346.273438 21.859375 303.734375 77.191406 264.773438 C 83.128906 260.589844 89.570312 256.363281 96.390625 251.890625 C 130.660156 229.402344 169.503906 203.914062 171.007812 167.367188 C 172.265625 136.910156 146.59375 110.207031 100.582031 94.097656 C 0.335938 59 -189.675781 80.183594 -285.695312 211.234375 C -320.59375 258.871094 -288.042969 335.265625 -198.617188 415.59375 C -117.933594 488.070312 -3.878906 547.40625 27.992188 518.339844 C 45.277344 502.578125 37.496094 475.585938 28.488281 444.339844 C 23.253906 426.183594 17.589844 406.527344 15.589844 386.195312 Z M 15.589844 386.195312 " fill-opacity="1" fill-rule="nonzero"/></g></g></g><g clip-path="url(#910aa1d33c)"><g clip-path="url(#84a1071a23)"><g clip-path="url(#ad502a4349)"><path fill="#b3ded8" d="M 137.375 164.789062 C 137.578125 166.875 137.644531 168.984375 137.570312 171.117188 C 136.382812 204.859375 101.019531 228.371094 69.820312 249.113281 C 63.667969 253.207031 57.851562 257.070312 52.5 260.886719 C -22.3125 314.242188 -4.554688 374.472656 9.710938 422.867188 C 18.160156 451.535156 25.460938 476.289062 9.351562 491.160156 C -4.140625 503.609375 -34.59375 499.898438 -76.402344 480.707031 C -115.980469 462.539062 -160.421875 432.820312 -198.335938 399.175781 C -235.160156 366.496094 -262.628906 333.082031 -277.765625 302.546875 C -295.535156 266.707031 -295.824219 236.484375 -278.628906 212.71875 C -228.753906 143.773438 -156.984375 114.070312 -105.5625 101.292969 C -43.65625 85.90625 22.914062 86.890625 72.511719 103.917969 C 111.644531 117.355469 134.863281 139.296875 137.375 164.789062 Z M -3.488281 369.582031 C -7.023438 333.636719 2.261719 295.332031 51.84375 259.96875 C 57.210938 256.140625 63.035156 252.269531 69.195312 248.171875 C 100.167969 227.582031 135.273438 204.242188 136.441406 171.078125 C 137.410156 143.441406 113.976562 119.351562 72.144531 104.988281 C -19.011719 73.6875 -191.308594 93.945312 -277.714844 213.382812 C -309.121094 256.789062 -279.164062 325.933594 -197.585938 398.332031 C -123.980469 463.652344 -20.171875 516.871094 8.585938 490.328125 C 24.175781 475.933594 16.972656 451.492188 8.628906 423.1875 C 3.699219 406.472656 -1.640625 388.347656 -3.488281 369.582031 Z M -3.488281 369.582031 " fill-opacity="1" fill-rule="nonzero"/></g></g></g><g clip-path="url(#d76842e0b6)"><g clip-path="url(#4ec8ec314b)"><g clip-path="url(#9402879cb3)"><path fill="#b3ded8" d="M 102.726562 169.441406 C 102.898438 171.214844 102.964844 173.007812 102.914062 174.816406 C 102.070312 205.132812 70.46875 226.480469 42.585938 245.316406 C 37.085938 249.03125 31.890625 252.539062 27.109375 256.003906 C -39.710938 304.40625 -23.367188 358.375 -10.238281 401.734375 C -2.457031 427.421875 4.261719 449.613281 -10.109375 463.074219 C -22.148438 474.351562 -49.523438 471.21875 -87.203125 454.257812 C -122.867188 438.207031 -162.976562 411.8125 -197.246094 381.847656 C -230.53125 352.746094 -255.417969 322.917969 -269.214844 295.597656 C -285.410156 263.527344 -285.871094 236.386719 -270.585938 214.925781 C -226.25 152.679688 -161.996094 125.527344 -115.902344 113.710938 C -60.410156 99.484375 -0.621094 99.925781 44.035156 114.890625 C 79.429688 126.75 100.460938 146.429688 102.726562 169.441406 Z M -22.570312 352.988281 C -25.714844 321.015625 -17.347656 286.921875 26.5 255.160156 C 31.292969 251.6875 36.496094 248.175781 42.003906 244.453125 C 69.675781 225.757812 101.042969 204.570312 101.871094 174.789062 C 102.554688 149.996094 81.363281 128.496094 43.703125 115.878906 C -38.359375 88.375 -192.9375 107.707031 -269.738281 215.53125 C -297.648438 254.714844 -270.292969 316.59375 -196.558594 381.066406 C -130.03125 439.234375 -36.464844 486.335938 -10.820312 462.3125 C 3.078125 449.296875 -3.554688 427.394531 -11.230469 402.035156 C -15.855469 386.765625 -20.878906 370.183594 -22.570312 352.988281 Z M -22.570312 352.988281 " fill-opacity="1" fill-rule="nonzero"/></g></g></g><g clip-path="url(#9849200ac5)"><g clip-path="url(#2516c1a03a)"><g clip-path="url(#397aa49d0f)"><path fill="#b3ded8" d="M 68.082031 174.09375 C 68.226562 175.550781 68.285156 177.027344 68.257812 178.511719 C 67.757812 205.402344 39.917969 224.589844 15.351562 241.519531 C 10.507812 244.855469 5.929688 248.011719 1.71875 251.121094 C -57.109375 294.574219 -42.179688 342.273438 -30.183594 380.597656 C -23.078125 403.316406 -16.933594 422.929688 -29.570312 434.988281 C -40.152344 445.089844 -64.457031 442.539062 -98.003906 427.8125 C -129.75 413.875 -165.523438 390.804688 -196.152344 364.523438 C -225.898438 338.996094 -248.207031 312.761719 -260.664062 288.652344 C -275.289062 260.351562 -275.917969 236.289062 -262.542969 217.132812 C -223.746094 161.582031 -167.003906 136.984375 -126.238281 126.128906 C -77.160156 113.058594 -24.152344 112.960938 15.558594 125.859375 C 47.21875 136.144531 66.0625 153.558594 68.082031 174.09375 Z M -41.65625 336.421875 C -44.414062 308.40625 -36.972656 278.515625 1.15625 250.355469 C 5.378906 247.234375 9.960938 244.078125 14.8125 240.734375 C 39.1875 223.9375 66.816406 204.894531 67.304688 178.496094 C 67.710938 156.484375 48.742188 137.640625 15.265625 126.765625 C -57.703125 103.0625 -194.570312 121.46875 -261.761719 217.679688 C -286.175781 252.632812 -261.414062 307.261719 -195.53125 363.800781 C -136.085938 414.8125 -52.765625 455.796875 -30.230469 434.300781 C -18.019531 422.648438 -24.078125 403.292969 -31.09375 380.882812 C -35.417969 367.066406 -40.121094 352.03125 -41.65625 336.421875 Z M -41.65625 336.421875 " fill-opacity="1" fill-rule="nonzero"/></g></g></g><g clip-path="url(#9acada2d3a)"><g clip-path="url(#945ecea2f8)"><g clip-path="url(#37c36b4da3)"><path fill="#b3ded8" d="M 33.441406 178.75 C 33.554688 179.894531 33.605469 181.046875 33.601562 182.210938 C 33.445312 205.675781 9.363281 222.703125 -11.886719 237.722656 C -16.074219 240.683594 -20.03125 243.484375 -23.671875 246.238281 C -74.507812 284.738281 -60.988281 326.175781 -50.132812 359.464844 C -43.695312 379.199219 -38.132812 396.246094 -49.035156 406.90625 C -58.160156 415.828125 -79.386719 413.859375 -108.800781 401.363281 C -136.632812 389.539062 -168.074219 369.796875 -195.058594 347.199219 C -221.269531 325.246094 -240.996094 302.597656 -252.113281 281.703125 C -265.167969 257.167969 -265.96875 236.191406 -254.496094 219.339844 C -221.246094 170.488281 -172.019531 148.441406 -136.578125 138.546875 C -93.914062 126.636719 -47.683594 125.996094 -12.917969 136.832031 C 15.003906 145.53125 31.664062 160.683594 33.441406 178.75 Z M -60.753906 319.882812 C -63.125 295.816406 -56.621094 270.109375 -24.191406 245.546875 C -20.542969 242.785156 -16.582031 239.984375 -12.386719 237.019531 C 8.691406 222.117188 32.585938 205.226562 32.734375 182.207031 C 32.863281 163.035156 16.128906 146.785156 -13.175781 137.65625 C -77.046875 117.75 -196.199219 135.230469 -253.78125 219.824219 C -274.707031 250.558594 -252.542969 297.929688 -194.503906 346.535156 C -142.136719 390.394531 -69.058594 425.261719 -49.636719 406.289062 C -39.121094 396.007812 -44.605469 379.195312 -50.953125 359.730469 C -54.984375 347.378906 -59.375 333.90625 -60.753906 319.882812 Z M -60.753906 319.882812 " fill-opacity="1" fill-rule="nonzero"/></g></g></g></svg>